<svg width="141" height="166" viewBox="0 0 141 166" fill="none" xmlns="http://www.w3.org/2000/svg">
<path d="M102 128H115L118.5 140V151L102 155V128Z" fill="#00C4D2"/>
<path d="M68.9309 137L70.1371 150.34L62.937 154.611L56.0393 155.235L52 138.531L68.9309 137Z" fill="#00C4D2"/>
<path d="M70 2.5L82 8L85.5 20H97.5L104.889 31L102 41L86.5 44.9508L85.5 50.5L72 53.5L60.5 56L57.3364 44.9508H41L37 31L44 21.5L56 20L57.3364 9L70 2.5Z" fill="#D9D9D9"/>
<path d="M73 55L86.5 53.5L105.5 57.5L124.5 64.5L135 77L137.5 96.5L131.5 111.5L108 131L110.5 145L103.5 161H90L83.5 152L81.5 141.5H70.5L60 143V149L52 155.5H41L30 152L19.5 145L10 136L4 123.098V111.5L7.5 98.5L15.5 87.5L27 77L44.5 66.5L60 60.5L73 55Z" fill="#62C287"/>
<ellipse cx="36.8776" cy="94.8181" rx="9" ry="12" transform="rotate(49.5409 36.8776 94.8181)" fill="#00C4D2"/>
<ellipse cx="51.7172" cy="75.5" rx="5.84581" ry="7.78558" transform="rotate(49.5409 51.7172 75.5)" fill="#00C4D2"/>
<ellipse cx="14.847" cy="111.149" rx="3.63411" ry="4.75552" transform="rotate(42.1536 14.847 111.149)" fill="#00C4D2"/>
<path d="M22.1542 94.4547C18.4174 98.5826 13.1674 99.9185 10.428 97.4385C7.68852 94.9586 10.7632 91.6278 14.5 87.5C18.2368 83.3722 21.2206 80.0104 23.9601 82.4903C26.6995 84.9703 25.891 90.3269 22.1542 94.4547Z" fill="#00C4D2"/>
<path d="M37.8859 79.9826C33.0525 82.7468 27.6471 82.3873 25.8126 79.1796C23.9782 75.9719 27.9348 73.7599 32.7682 70.9957C37.6016 68.2315 41.4814 65.9618 43.3159 69.1695C45.1504 72.3772 42.7193 77.2184 37.8859 79.9826Z" fill="#00C4D2"/>
<path d="M62.4945 65.8015C59.6541 67.4259 56.3807 67.0454 55.1832 64.9515C53.9857 62.8577 56.3123 61.5602 59.1528 59.9358C61.9932 58.3114 64.2719 56.975 65.4693 59.0689C66.6668 61.1628 65.3349 64.177 62.4945 65.8015Z" fill="#00C4D2"/>
<path d="M131 114C121 121.5 125.5 119.5 115.5 126.5C104.454 126.5 107 135 102 126.5C111.5 121.5 126 110 135.5 103.5C136.5 113 131 104.059 131 114Z" fill="#FFBD3E"/>
<path d="M54 135.5L79 131.5L84.5 138L60 143L54 135.5Z" fill="#FFBD3E"/>
<path d="M50.5608 133.5C53.7274 135.167 60.0608 139.8 60.0608 145C60.0608 151.5 56.0608 156.5 50.5608 157C45.0608 157.5 35.5608 155 26.0608 150C16.5608 145 4.06076 136 3.06076 118.5C2.06076 101 13.5608 86.5 26.0608 77C38.5608 67.5 56.5607 61.5 60.0608 59.5C63.5608 57.5 69.5608 54.5 76.0608 53.5C82.5608 52.5 94.0608 54.5 98.0608 55.5C102.061 56.5 119.561 61 124.561 65C129.561 69 137.061 76 137.561 84C138.061 92 140.204 98 135.061 107C129.918 116 115.061 126.5 108.561 130M109.561 155C113.061 155 119.961 153.3 119.561 146.5C119.161 139.7 117.727 130.333 117.061 126.5M58.0608 154.5C62.2275 154.667 70.6608 152.7 71.0608 143.5M107.561 131C108.561 137.667 109.961 151.9 107.561 155.5C104.561 160 102.561 163.5 96.5608 163C90.5608 162.5 86.5608 161 84.0608 155.5C82.0608 151.1 81.8942 143.667 82.0608 140.5L62.5608 144" stroke="black" stroke-width="5" stroke-linecap="round"/>
<path d="M97.5 113.5C108.612 113.5 117.5 104.255 117.5 93C117.5 81.745 108.612 72.5 97.5 72.5C86.3884 72.5 77.5 81.745 77.5 93C77.5 104.255 86.3884 113.5 97.5 113.5Z" fill="#FFBC3B" stroke="black" stroke-width="5"/>
<circle cx="97.5" cy="92.5" r="11.5" fill="black"/>
<path d="M59.0701 57.0368L57.0701 44.0368C50.5701 46.3701 37.4701 47.6368 37.0701 34.0368C36.6701 20.4368 49.2368 19.7034 55.5701 21.0368C54.5701 15.3701 56.0701 3.83676 70.0701 3.03676C84.0701 2.23676 86.2367 14.7034 85.5701 21.0368C92.2367 18.8701 105.57 18.4368 105.57 34.0368C105.57 42.0368 92.2367 44.0368 85.5701 44.0368V51.5368" stroke="black" stroke-width="5" stroke-linecap="round"/>
</svg>
